999
"DXF R12 Output" (www.mydxf.blogspot.com)
 0 
SECTION
 2 
HEADER
 9 
$ACADVER
 1 
AC1009
 9 
$EXTMIN
 10 
 0 
 20 
 0 
 9 
$EXTMAX
 10 
 8.5 
 20 
 11 
 0 
ENDSEC
 0 
SECTION
 2 
ENTITIES
0
LINE
8
Layer 1
10
0.846666
20
317.647000
11
-0.846666
21
315.953000
0
LINE
8
Layer 1
10
0.000000
20
318.211000
11
0.000000
21
315.389000
0
LINE
8
Layer 1
10
2.257780
20
315.671000
11
1.128890
21
314.542110
0
LINE
8
Layer 1
10
1.693330
20
316.236000
11
0.564440
21
315.107110
0
LINE
8
Layer 1
10
1.128890
20
316.800000
11
0.000000
21
315.671110
0
LINE
8
0
10
17.795300
20
260.424000
11
17.930069
21
259.408161
0
LINE
8
0
10
17.930069
20
259.408161
11
18.316907
21
258.477335
0
LINE
8
0
10
18.316907
20
258.477335
11
18.929608
21
257.676910
0
LINE
8
0
10
18.929608
20
257.676910
11
19.741965
21
257.052277
0
LINE
8
0
10
19.741965
20
257.052277
11
20.689092
21
256.661072
0
LINE
8
0
10
20.689092
20
256.661072
11
21.688630
21
256.530670
0
LINE
8
0
10
21.688630
20
256.530670
11
22.688168
21
256.661072
0
LINE
8
0
10
22.688168
20
256.661072
11
23.635295
21
257.052277
0
LINE
8
0
10
23.635295
20
257.052277
11
24.447652
21
257.676910
0
LINE
8
0
10
24.447652
20
257.676910
11
25.060353
21
258.477335
0
LINE
8
0
10
25.060353
20
258.477335
11
25.447191
21
259.408161
0
LINE
8
0
10
25.447191
20
259.408161
11
25.581960
21
260.424000
0
LINE
8
0
10
25.581960
20
260.424000
11
25.447191
21
261.439839
0
LINE
8
0
10
25.447191
20
261.439839
11
25.060353
21
262.370665
0
LINE
8
0
10
25.060353
20
262.370665
11
24.447652
21
263.171090
0
LINE
8
0
10
24.447652
20
263.171090
11
23.635295
21
263.795723
0
LINE
8
0
10
23.635295
20
263.795723
11
22.688168
21
264.186928
0
LINE
8
0
10
22.688168
20
264.186928
11
21.688630
21
264.317330
0
LINE
8
0
10
21.688630
20
264.317330
11
20.689092
21
264.186928
0
LINE
8
0
10
20.689092
20
264.186928
11
19.741965
21
263.795723
0
LINE
8
0
10
19.741965
20
263.795723
11
18.929608
21
263.171090
0
LINE
8
0
10
18.929608
20
263.171090
11
18.316907
21
262.370665
0
LINE
8
0
10
18.316907
20
262.370665
11
17.930069
21
261.439839
0
LINE
8
0
10
17.930069
20
261.439839
11
17.795300
21
260.424000
0
LINE
8
0
10
17.795300
20
260.424000
11
17.795300
21
260.424000
0
LINE
8
0
10
38.222000
20
240.104000
11
38.351231
21
239.129908
0
LINE
8
0
10
38.351231
20
239.129908
11
38.722171
21
238.237335
0
LINE
8
0
10
38.722171
20
238.237335
11
39.309692
21
237.469805
0
LINE
8
0
10
39.309692
20
237.469805
11
40.088665
21
236.870841
0
LINE
8
0
10
40.088665
20
236.870841
11
40.996869
21
236.495713
0
LINE
8
0
10
40.996869
20
236.495713
11
41.955330
21
236.370670
0
LINE
8
0
10
41.955330
20
236.370670
11
42.913791
21
236.495713
0
LINE
8
0
10
42.913791
20
236.495713
11
43.821995
21
236.870841
0
LINE
8
0
10
43.821995
20
236.870841
11
44.600968
21
237.469805
0
LINE
8
0
10
44.600968
20
237.469805
11
45.188489
21
238.237335
0
LINE
8
0
10
45.188489
20
238.237335
11
45.559429
21
239.129908
0
LINE
8
0
10
45.559429
20
239.129908
11
45.688660
21
240.104000
0
LINE
8
0
10
45.688660
20
240.104000
11
45.559429
21
241.078092
0
LINE
8
0
10
45.559429
20
241.078092
11
45.188489
21
241.970665
0
LINE
8
0
10
45.188489
20
241.970665
11
44.600968
21
242.738195
0
LINE
8
0
10
44.600968
20
242.738195
11
43.821995
21
243.337159
0
LINE
8
0
10
43.821995
20
243.337159
11
42.913791
21
243.712287
0
LINE
8
0
10
42.913791
20
243.712287
11
41.955330
21
243.837330
0
LINE
8
0
10
41.955330
20
243.837330
11
40.996869
21
243.712287
0
LINE
8
0
10
40.996869
20
243.712287
11
40.088665
21
243.337159
0
LINE
8
0
10
40.088665
20
243.337159
11
39.309692
21
242.738195
0
LINE
8
0
10
39.309692
20
242.738195
11
38.722171
21
241.970665
0
LINE
8
0
10
38.722171
20
241.970665
11
38.351231
21
241.078092
0
LINE
8
0
10
38.351231
20
241.078092
11
38.222000
21
240.104000
0
LINE
8
0
10
38.222000
20
240.104000
11
38.222000
21
240.104000
0
LINE
8
0
10
38.222000
20
256.638000
11
38.351231
21
255.663908
0
LINE
8
0
10
38.351231
20
255.663908
11
38.722171
21
254.771335
0
LINE
8
0
10
38.722171
20
254.771335
11
39.309692
21
254.003805
0
LINE
8
0
10
39.309692
20
254.003805
11
40.088665
21
253.404841
0
LINE
8
0
10
40.088665
20
253.404841
11
40.996869
21
253.029713
0
LINE
8
0
10
40.996869
20
253.029713
11
41.955330
21
252.904670
0
LINE
8
0
10
41.955330
20
252.904670
11
42.913791
21
253.029713
0
LINE
8
0
10
42.913791
20
253.029713
11
43.821995
21
253.404841
0
LINE
8
0
10
43.821995
20
253.404841
11
44.600968
21
254.003805
0
LINE
8
0
10
44.600968
20
254.003805
11
45.188489
21
254.771335
0
LINE
8
0
10
45.188489
20
254.771335
11
45.559429
21
255.663908
0
LINE
8
0
10
45.559429
20
255.663908
11
45.688660
21
256.638000
0
LINE
8
0
10
45.688660
20
256.638000
11
45.559429
21
257.612092
0
LINE
8
0
10
45.559429
20
257.612092
11
45.188489
21
258.504665
0
LINE
8
0
10
45.188489
20
258.504665
11
44.600968
21
259.272195
0
LINE
8
0
10
44.600968
20
259.272195
11
43.821995
21
259.871159
0
LINE
8
0
10
43.821995
20
259.871159
11
42.913791
21
260.246287
0
LINE
8
0
10
42.913791
20
260.246287
11
41.955330
21
260.371330
0
LINE
8
0
10
41.955330
20
260.371330
11
40.996869
21
260.246287
0
LINE
8
0
10
40.996869
20
260.246287
11
40.088665
21
259.871159
0
LINE
8
0
10
40.088665
20
259.871159
11
39.309692
21
259.272195
0
LINE
8
0
10
39.309692
20
259.272195
11
38.722171
21
258.504665
0
LINE
8
0
10
38.722171
20
258.504665
11
38.351231
21
257.612092
0
LINE
8
0
10
38.351231
20
257.612092
11
38.222000
21
256.638000
0
LINE
8
0
10
38.222000
20
256.638000
11
38.222000
21
256.638000
0
LINE
8
0
10
57.208600
20
256.638000
11
57.337831
21
255.663908
0
LINE
8
0
10
57.337831
20
255.663908
11
57.708771
21
254.771335
0
LINE
8
0
10
57.708771
20
254.771335
11
58.296292
21
254.003804
0
LINE
8
0
10
58.296292
20
254.003804
11
59.075265
21
253.404841
0
LINE
8
0
10
59.075265
20
253.404841
11
59.983469
21
253.029713
0
LINE
8
0
10
59.983469
20
253.029713
11
60.941930
21
252.904670
0
LINE
8
0
10
60.941930
20
252.904670
11
61.900391
21
253.029713
0
LINE
8
0
10
61.900391
20
253.029713
11
62.808595
21
253.404841
0
LINE
8
0
10
62.808595
20
253.404841
11
63.587568
21
254.003804
0
LINE
8
0
10
63.587568
20
254.003804
11
64.175089
21
254.771335
0
LINE
8
0
10
64.175089
20
254.771335
11
64.546029
21
255.663908
0
LINE
8
0
10
64.546029
20
255.663908
11
64.675260
21
256.638000
0
LINE
8
0
10
64.675260
20
256.638000
11
64.546029
21
257.612092
0
LINE
8
0
10
64.546029
20
257.612092
11
64.175089
21
258.504665
0
LINE
8
0
10
64.175089
20
258.504665
11
63.587568
21
259.272196
0
LINE
8
0
10
63.587568
20
259.272196
11
62.808595
21
259.871159
0
LINE
8
0
10
62.808595
20
259.871159
11
61.900391
21
260.246287
0
LINE
8
0
10
61.900391
20
260.246287
11
60.941930
21
260.371330
0
LINE
8
0
10
60.941930
20
260.371330
11
59.983469
21
260.246287
0
LINE
8
0
10
59.983469
20
260.246287
11
59.075265
21
259.871159
0
LINE
8
0
10
59.075265
20
259.871159
11
58.296292
21
259.272196
0
LINE
8
0
10
58.296292
20
259.272196
11
57.708771
21
258.504665
0
LINE
8
0
10
57.708771
20
258.504665
11
57.337831
21
257.612092
0
LINE
8
0
10
57.337831
20
257.612092
11
57.208600
21
256.638000
0
LINE
8
0
10
57.208600
20
256.638000
11
57.208600
21
256.638000
0
LINE
8
0
10
68.713200
20
218.398000
11
68.940283
21
216.686383
0
LINE
8
0
10
68.940283
20
216.686383
11
69.592081
21
215.118005
0
LINE
8
0
10
69.592081
20
215.118005
11
70.624439
21
213.769345
0
LINE
8
0
10
70.624439
20
213.769345
11
71.993205
21
212.716882
0
LINE
8
0
10
71.993205
20
212.716882
11
73.589048
21
212.057728
0
LINE
8
0
10
73.589048
20
212.057728
11
75.273200
21
211.838010
0
LINE
8
0
10
75.273200
20
211.838010
11
76.957352
21
212.057728
0
LINE
8
0
10
76.957352
20
212.057728
11
78.553195
21
212.716882
0
LINE
8
0
10
78.553195
20
212.716882
11
79.921960
21
213.769345
0
LINE
8
0
10
79.921960
20
213.769345
11
80.954318
21
215.118005
0
LINE
8
0
10
80.954318
20
215.118005
11
81.606113
21
216.686383
0
LINE
8
0
10
81.606113
20
216.686383
11
81.833190
21
218.398000
0
LINE
8
0
10
81.833190
20
218.398000
11
81.606110
21
220.109617
0
LINE
8
0
10
81.606110
20
220.109617
11
80.954314
21
221.677995
0
LINE
8
0
10
80.954314
20
221.677995
11
79.921955
21
223.026655
0
LINE
8
0
10
79.921955
20
223.026655
11
78.553190
21
224.079118
0
LINE
8
0
10
78.553190
20
224.079118
11
76.957347
21
224.738272
0
LINE
8
0
10
76.957347
20
224.738272
11
75.273195
21
224.957990
0
LINE
8
0
10
75.273195
20
224.957990
11
73.589043
21
224.738272
0
LINE
8
0
10
73.589043
20
224.738272
11
71.993200
21
224.079118
0
LINE
8
0
10
71.993200
20
224.079118
11
70.624435
21
223.026655
0
LINE
8
0
10
70.624435
20
223.026655
11
69.592077
21
221.677995
0
LINE
8
0
10
69.592077
20
221.677995
11
68.940282
21
220.109617
0
LINE
8
0
10
68.940282
20
220.109617
11
68.713205
21
218.398000
0
LINE
8
0
10
68.713205
20
218.398000
11
68.713200
21
218.398000
0
LINE
8
0
10
85.779900
20
218.398000
11
86.006983
21
216.686383
0
LINE
8
0
10
86.006983
20
216.686383
11
86.658781
21
215.118005
0
LINE
8
0
10
86.658781
20
215.118005
11
87.691139
21
213.769345
0
LINE
8
0
10
87.691139
20
213.769345
11
89.059905
21
212.716882
0
LINE
8
0
10
89.059905
20
212.716882
11
90.655748
21
212.057728
0
LINE
8
0
10
90.655748
20
212.057728
11
92.339900
21
211.838010
0
LINE
8
0
10
92.339900
20
211.838010
11
94.024052
21
212.057728
0
LINE
8
0
10
94.024052
20
212.057728
11
95.619895
21
212.716882
0
LINE
8
0
10
95.619895
20
212.716882
11
96.988660
21
213.769345
0
LINE
8
0
10
96.988660
20
213.769345
11
98.021018
21
215.118005
0
LINE
8
0
10
98.021018
20
215.118005
11
98.672813
21
216.686383
0
LINE
8
0
10
98.672813
20
216.686383
11
98.899890
21
218.398000
0
LINE
8
0
10
98.899890
20
218.398000
11
98.672810
21
220.109617
0
LINE
8
0
10
98.672810
20
220.109617
11
98.021014
21
221.677995
0
LINE
8
0
10
98.021014
20
221.677995
11
96.988655
21
223.026655
0
LINE
8
0
10
96.988655
20
223.026655
11
95.619890
21
224.079118
0
LINE
8
0
10
95.619890
20
224.079118
11
94.024047
21
224.738272
0
LINE
8
0
10
94.024047
20
224.738272
11
92.339895
21
224.957990
0
LINE
8
0
10
92.339895
20
224.957990
11
90.655743
21
224.738272
0
LINE
8
0
10
90.655743
20
224.738272
11
89.059900
21
224.079118
0
LINE
8
0
10
89.059900
20
224.079118
11
87.691135
21
223.026655
0
LINE
8
0
10
87.691135
20
223.026655
11
86.658777
21
221.677995
0
LINE
8
0
10
86.658777
20
221.677995
11
86.006982
21
220.109617
0
LINE
8
0
10
86.006982
20
220.109617
11
85.779905
21
218.398000
0
LINE
8
0
10
85.779905
20
218.398000
11
85.779900
21
218.398000
0
LINE
8
0
10
57.208600
20
240.104000
11
57.337831
21
239.129908
0
LINE
8
0
10
57.337831
20
239.129908
11
57.708771
21
238.237335
0
LINE
8
0
10
57.708771
20
238.237335
11
58.296292
21
237.469804
0
LINE
8
0
10
58.296292
20
237.469804
11
59.075265
21
236.870841
0
LINE
8
0
10
59.075265
20
236.870841
11
59.983469
21
236.495713
0
LINE
8
0
10
59.983469
20
236.495713
11
60.941930
21
236.370670
0
LINE
8
0
10
60.941930
20
236.370670
11
61.900391
21
236.495713
0
LINE
8
0
10
61.900391
20
236.495713
11
62.808595
21
236.870841
0
LINE
8
0
10
62.808595
20
236.870841
11
63.587568
21
237.469804
0
LINE
8
0
10
63.587568
20
237.469804
11
64.175089
21
238.237335
0
LINE
8
0
10
64.175089
20
238.237335
11
64.546029
21
239.129908
0
LINE
8
0
10
64.546029
20
239.129908
11
64.675260
21
240.104000
0
LINE
8
0
10
64.675260
20
240.104000
11
64.546029
21
241.078092
0
LINE
8
0
10
64.546029
20
241.078092
11
64.175089
21
241.970665
0
LINE
8
0
10
64.175089
20
241.970665
11
63.587568
21
242.738196
0
LINE
8
0
10
63.587568
20
242.738196
11
62.808595
21
243.337159
0
LINE
8
0
10
62.808595
20
243.337159
11
61.900391
21
243.712287
0
LINE
8
0
10
61.900391
20
243.712287
11
60.941930
21
243.837330
0
LINE
8
0
10
60.941930
20
243.837330
11
59.983469
21
243.712287
0
LINE
8
0
10
59.983469
20
243.712287
11
59.075265
21
243.337159
0
LINE
8
0
10
59.075265
20
243.337159
11
58.296292
21
242.738196
0
LINE
8
0
10
58.296292
20
242.738196
11
57.708771
21
241.970665
0
LINE
8
0
10
57.708771
20
241.970665
11
57.337831
21
241.078092
0
LINE
8
0
10
57.337831
20
241.078092
11
57.208600
21
240.104000
0
LINE
8
0
10
57.208600
20
240.104000
11
57.208600
21
240.104000
0
LINE
8
0
10
23.182000
20
292.638000
11
23.182000
21
277.704000
0
LINE
8
0
10
23.182000
20
277.704000
11
91.981900
21
277.704000
0
LINE
8
0
10
91.981900
20
277.704000
11
91.981900
21
292.638000
0
LINE
8
0
10
91.981900
20
292.638000
11
23.182000
21
292.638000
0
LINE
8
0
10
99.806500
20
308.675000
11
101.235184
21
308.390817
0
LINE
8
0
10
101.235184
20
308.390817
11
102.446363
21
307.581533
0
LINE
8
0
10
102.446363
20
307.581533
11
103.255647
21
306.370354
0
LINE
8
0
10
103.255647
20
306.370354
11
103.539830
21
304.941670
0
LINE
8
0
10
103.539830
20
304.941670
11
103.540000
21
208.942000
0
LINE
8
0
10
103.540000
20
208.942000
11
103.255817
21
207.513316
0
LINE
8
0
10
103.255817
20
207.513316
11
102.446533
21
206.302137
0
LINE
8
0
10
102.446533
20
206.302137
11
101.235354
21
205.492853
0
LINE
8
0
10
101.235354
20
205.492853
11
99.806670
21
205.208670
0
LINE
8
0
10
99.806670
20
205.208670
11
15.144100
21
205.209000
0
LINE
8
0
10
15.144100
20
205.209000
11
14.391753
21
205.284844
0
LINE
8
0
10
14.391753
20
205.284844
11
13.691009
21
205.502359
0
LINE
8
0
10
13.691009
20
205.502359
11
12.504373
21
206.302361
0
LINE
8
0
10
12.504373
20
206.302361
11
11.704276
21
207.488933
0
LINE
8
0
10
11.704276
20
207.488933
11
11.486705
21
208.189659
0
LINE
8
0
10
11.486705
20
208.189659
11
11.410800
21
208.942000
0
LINE
8
0
10
11.410800
20
208.942000
11
11.410800
21
304.942000
0
LINE
8
0
10
11.410800
20
304.942000
11
11.694983
21
306.370684
0
LINE
8
0
10
11.694983
20
306.370684
11
12.504267
21
307.581863
0
LINE
8
0
10
12.504267
20
307.581863
11
13.715446
21
308.391147
0
LINE
8
0
10
13.715446
20
308.391147
11
15.144130
21
308.675330
0
LINE
8
0
10
15.144130
20
308.675330
11
99.806500
21
308.675000
 0 
ENDSEC
 0 
EOF